<svg width="139" height="25" viewBox="0 0 139 25" fill="none" xmlns="http://www.w3.org/2000/svg">
<path d="M4.52099 8.64588L12.045 22.1099L19.569 8.64588L21.285 24.2549H24.09L21.285 -0.00011766L12.045 16.7309L2.80499 -0.00011766L-7.23079e-06 24.2549H2.80499L4.52099 8.64588ZM27.8708 2.80488C27.8708 3.28888 28.0468 3.71788 28.3988 4.09188C28.7728 4.44388 29.2018 4.61988 29.6858 4.61988C30.1918 4.61988 30.6208 4.44388 30.9728 4.09188C31.3248 3.71788 31.5008 3.28888 31.5008 2.80488C31.5008 2.29888 31.3248 1.86988 30.9728 1.51788C30.6208 1.16588 30.1918 0.989881 29.6858 0.989881C29.2018 0.989881 28.7728 1.16588 28.3988 1.51788C28.0468 1.86988 27.8708 2.29888 27.8708 2.80488ZM28.3658 9.07488V24.2549H31.0058V9.07488H28.3658ZM46.1781 15.0149V24.2549H48.8181V14.6849C48.8181 13.4529 48.5981 12.3969 48.1581 11.5169C47.7401 10.6369 47.1461 9.95488 46.3761 9.47088C45.6061 8.98688 44.6821 8.74488 43.6041 8.74488C42.6141 8.74488 41.7341 8.96488 40.9641 9.40488C40.2161 9.84488 39.5891 10.5269 39.0831 11.4509V9.07488H36.4431V24.2549H39.0831V15.0149C39.0831 14.2669 39.2371 13.6069 39.5451 13.0349C39.8751 12.4629 40.3261 12.0229 40.8981 11.7149C41.4921 11.3849 42.1741 11.2199 42.9441 11.2199C43.6481 11.2199 44.2421 11.3629 44.7261 11.6489C45.2101 11.9349 45.5731 12.3639 45.8151 12.9359C46.0571 13.4859 46.1781 14.1789 46.1781 15.0149ZM53.781 2.80488C53.781 3.28888 53.957 3.71788 54.309 4.09188C54.683 4.44388 55.112 4.61988 55.596 4.61988C56.102 4.61988 56.531 4.44388 56.883 4.09188C57.235 3.71788 57.411 3.28888 57.411 2.80488C57.411 2.29888 57.235 1.86988 56.883 1.51788C56.531 1.16588 56.102 0.989881 55.596 0.989881C55.112 0.989881 54.683 1.16588 54.309 1.51788C53.957 1.86988 53.781 2.29888 53.781 2.80488ZM54.276 9.07488V24.2549H56.916V9.07488H54.276ZM63.3762 17.2589L61.1322 18.7769C61.6382 19.7889 62.2872 20.7459 63.0792 21.6479C63.8932 22.5279 64.8282 23.2429 65.8842 23.7929C66.9622 24.3209 68.1282 24.5849 69.3822 24.5849C70.3062 24.5849 71.1862 24.4309 72.0222 24.1229C72.8802 23.8149 73.6392 23.3749 74.2992 22.8029C74.9812 22.2309 75.5092 21.5379 75.8832 20.7239C76.2792 19.9099 76.4772 18.9969 76.4772 17.9849C76.4772 16.9289 76.2902 16.0269 75.9162 15.2789C75.5422 14.5089 75.0582 13.8599 74.4642 13.3319C73.8922 12.7819 73.2652 12.3309 72.5832 11.9789C71.9012 11.6269 71.2522 11.3409 70.6362 11.1209C69.6242 10.7689 68.7662 10.4169 68.0622 10.0649C67.3802 9.71288 66.8302 9.34988 66.4122 8.97588C66.0162 8.60188 65.7302 8.20588 65.5542 7.78788C65.3782 7.36988 65.2902 6.91888 65.2902 6.43488C65.2902 5.92888 65.4112 5.45588 65.6532 5.01588C65.9172 4.57588 66.3132 4.21288 66.8412 3.92688C67.3692 3.64088 68.0512 3.49788 68.8872 3.49788C69.7892 3.49788 70.5482 3.67388 71.1642 4.02588C71.8022 4.37788 72.3412 4.82888 72.7812 5.37888C73.2212 5.92888 73.5842 6.48988 73.8702 7.06188L76.2792 5.67588C75.9052 4.86188 75.3882 4.09188 74.7282 3.36588C74.0682 2.61788 73.2652 2.01288 72.3192 1.55088C71.3952 1.06688 70.3062 0.824882 69.0522 0.824882C67.7542 0.824882 66.5992 1.08888 65.5872 1.61688C64.5752 2.12288 63.7832 2.82688 63.2112 3.72888C62.6392 4.63088 62.3532 5.65388 62.3532 6.79788C62.3532 7.85388 62.5512 8.74488 62.9472 9.47088C63.3652 10.1969 63.8932 10.8129 64.5312 11.3189C65.1692 11.8029 65.8402 12.2099 66.5442 12.5399C67.2482 12.8479 67.8862 13.1009 68.4582 13.2989C69.3382 13.6069 70.1632 13.9589 70.9332 14.3549C71.7252 14.7289 72.3632 15.2239 72.8472 15.8399C73.3312 16.4559 73.5732 17.2809 73.5732 18.3149C73.5732 19.0189 73.3972 19.6459 73.0452 20.1959C72.7152 20.7459 72.2422 21.1749 71.6262 21.4829C71.0322 21.7909 70.3172 21.9449 69.4812 21.9449C68.5572 21.9449 67.7322 21.7469 67.0062 21.3509C66.2802 20.9549 65.6202 20.4049 65.0262 19.7009C64.4542 18.9969 63.9042 18.1829 63.3762 17.2589ZM78.1223 9.07488V11.5499H85.7123V9.07488H78.1223ZM80.5973 3.79488V24.2549H83.2373V3.79488H80.5973ZM87.0401 16.6649C87.0401 18.1829 87.3811 19.5469 88.0631 20.7569C88.7671 21.9449 89.7131 22.8799 90.9011 23.5619C92.0891 24.2439 93.4201 24.5849 94.8941 24.5849C96.3901 24.5849 97.7211 24.2439 98.8871 23.5619C100.075 22.8799 101.01 21.9449 101.692 20.7569C102.396 19.5469 102.748 18.1829 102.748 16.6649C102.748 15.1249 102.396 13.7609 101.692 12.5729C101.01 11.3849 100.075 10.4499 98.8871 9.76788C97.7211 9.08588 96.3901 8.74488 94.8941 8.74488C93.4201 8.74488 92.0891 9.08588 90.9011 9.76788C89.7131 10.4499 88.7671 11.3849 88.0631 12.5729C87.3811 13.7609 87.0401 15.1249 87.0401 16.6649ZM89.7131 16.6649C89.7131 15.6089 89.9331 14.6739 90.3731 13.8599C90.8351 13.0239 91.4511 12.3749 92.2211 11.9129C93.0131 11.4509 93.9041 11.2199 94.8941 11.2199C95.8841 11.2199 96.7641 11.4509 97.5341 11.9129C98.3261 12.3749 98.9421 13.0239 99.3821 13.8599C99.8441 14.6739 100.075 15.6089 100.075 16.6649C100.075 17.7209 99.8441 18.6559 99.3821 19.4699C98.9421 20.2839 98.3261 20.9329 97.5341 21.4169C96.7641 21.8789 95.8841 22.1099 94.8941 22.1099C93.9041 22.1099 93.0131 21.8789 92.2211 21.4169C91.4511 20.9329 90.8351 20.2839 90.3731 19.4699C89.9331 18.6559 89.7131 17.7209 89.7131 16.6649ZM109.015 9.07488H106.375V24.2549H109.015V9.07488ZM113.602 11.9789L115.054 9.80088C114.658 9.38288 114.218 9.10788 113.734 8.97588C113.272 8.82188 112.766 8.74488 112.216 8.74488C111.512 8.74488 110.819 9.01988 110.137 9.56988C109.455 10.1199 108.894 10.8679 108.454 11.8139C108.036 12.7379 107.827 13.8049 107.827 15.0149H109.015C109.015 14.2889 109.081 13.6399 109.213 13.0679C109.367 12.4959 109.631 12.0449 110.005 11.7149C110.379 11.3849 110.896 11.2199 111.556 11.2199C111.996 11.2199 112.359 11.2859 112.645 11.4179C112.931 11.5279 113.25 11.7149 113.602 11.9789ZM123.077 24.5849C124.705 24.5849 126.113 24.2659 127.301 23.6279C128.511 22.9679 129.512 21.9999 130.304 20.7239L128.159 19.3709C127.609 20.2949 126.938 20.9879 126.146 21.4499C125.354 21.8899 124.441 22.1099 123.407 22.1099C122.373 22.1099 121.493 21.8899 120.767 21.4499C120.041 21.0099 119.491 20.3719 119.117 19.5359C118.743 18.6999 118.556 17.6879 118.556 16.4999C118.556 15.6419 118.666 14.8719 118.886 14.1899C119.106 13.5079 119.425 12.9359 119.843 12.4739C120.261 12.0119 120.767 11.6599 121.361 11.4179C121.977 11.1759 122.659 11.0549 123.407 11.0549C124.265 11.0549 125.013 11.2419 125.651 11.6159C126.289 11.9899 126.784 12.5069 127.136 13.1669C127.51 13.8269 127.697 14.6079 127.697 15.5099C127.697 15.6639 127.664 15.8619 127.598 16.1039C127.532 16.3239 127.466 16.4889 127.4 16.5989L128.456 15.0809H117.566V17.3249H130.535C130.535 17.2809 130.535 17.1819 130.535 17.0279C130.557 16.8519 130.568 16.6869 130.568 16.5329C130.568 14.9269 130.282 13.5409 129.71 12.3749C129.138 11.2089 128.313 10.3179 127.235 9.70188C126.179 9.06388 124.903 8.74488 123.407 8.74488C122.285 8.74488 121.262 8.94288 120.338 9.33888C119.414 9.71288 118.622 10.2519 117.962 10.9559C117.302 11.6379 116.785 12.4629 116.411 13.4309C116.059 14.3989 115.883 15.4769 115.883 16.6649C115.883 18.2269 116.18 19.6019 116.774 20.7899C117.39 21.9779 118.237 22.9129 119.315 23.5949C120.415 24.2549 121.669 24.5849 123.077 24.5849Z" fill="#272727"/>
<path d="M134.846 22.9349C134.846 23.4189 135.022 23.8479 135.374 24.2219C135.748 24.5739 136.177 24.7499 136.661 24.7499C137.167 24.7499 137.596 24.5739 137.948 24.2219C138.3 23.8479 138.476 23.4189 138.476 22.9349C138.476 22.4289 138.3 21.9999 137.948 21.6479C137.596 21.2959 137.167 21.1199 136.661 21.1199C136.177 21.1199 135.748 21.2959 135.374 21.6479C135.022 21.9999 134.846 22.4289 134.846 22.9349Z" fill="#72AEC8"/>
</svg>
